<svg version="1.0" xmlns="http://www.w3.org/2000/svg"
  width="800.000000pt" height="800.000000pt" viewBox="0 0 500.000000 500.000000"
  preserveAspectRatio="xMidYMid meet">

  <!-- Quadrado verde com bordas arredondadas -->
  <rect x="0" y="0" width="500" height="500" rx="100" ry="100" fill="#6ed14d"/>

  <g transform="translate(0.000000,500.000000) scale(0.100000,-0.100000)" fill="#000000" stroke="none">
    <path d="M2570 3813 c-14 -3 -57 -20 -97 -39 -131 -62 -229 -187 -263 -333 -15 -65 -8 -176 16 -246 65 -188 253 -324 449 -325 212 0 397 140 461 349 19 60 18 195 -2 262 -45 153 -179 285 -332 324 -52 14 -175 18 -232 8z"/>
    <path d="M1161 2628 c-23 -62 -56 -147 -72 -188 -16 -41 -29 -78 -29 -82 0 -5 187 -8 415 -8 265 0 415 -4 415 -10 0 -5 -36 -101 -79 -212 -43 -112 -115 -297 -159 -413 -44 -115 -108 -282 -142 -370 -34 -88 -64 -170 -67 -182 l-5 -23 553 0 554 0 34 93 c18 50 64 171 102 267 38 96 126 326 197 510 l129 335 380 3 380 2 71 188 c40 103 72 190 72 195 0 4 -265 7 -589 7 l-589 0 -25 -67 c-14 -38 -71 -187 -127 -333 -56 -146 -142 -371 -191 -500 -49 -129 -96 -250 -105 -267 l-15 -33 -131 0 c-100 0 -129 3 -125 13 12 29 119 304 171 442 32 83 74 191 93 240 19 50 47 124 63 165 16 41 49 128 74 193 26 65 46 125 46 133 0 12 -93 14 -628 14 l-629 0 -42 -112z"/>
    <path d="M3039 1814 c-17 -44 -134 -350 -195 -512 -30 -78 -54 -147 -54 -152 0 -6 112 -10 310 -10 171 0 310 3 310 6 0 8 -341 677 -351 688 -5 5 -13 -3 -20 -20z"/>
  </g>
</svg>
